<svg width="360" height="97" viewBox="0 0 360 97" fill="none" xmlns="http://www.w3.org/2000/svg">
<g filter="url(#filter0_d_2410_2857)">
<path d="M18 42C18 28.7452 28.7452 18 42 18H318C331.255 18 342 28.7452 342 42V51C342 64.2548 331.255 75 318 75H42C28.7452 75 18 64.2548 18 51V42Z" fill="white" shape-rendering="crispEdges"/>
<path d="M49.9989 61.1668L55.6269 58.1002C58.2747 56.656 60.4129 54.4308 61.7502 51.7275C63.0875 49.0242 63.5589 45.9744 63.1002 42.9935L61.9989 35.8335C53.9989 35.8335 49.9989 31.8335 49.9989 31.8335C49.9989 31.8335 45.9989 35.8335 37.9989 35.8335L36.8976 42.9908C36.4383 45.9721 36.9094 49.0226 38.2468 51.7264C39.5841 54.4302 41.7227 56.6559 44.3709 58.1002L49.9989 61.1668Z" fill="#38C274"/>
<path d="M47.3328 51.8334C46.9792 51.8333 46.6401 51.6928 46.3901 51.4427L43.7235 48.7761C43.5961 48.6531 43.4945 48.5059 43.4247 48.3433C43.3548 48.1806 43.318 48.0056 43.3165 47.8286C43.3149 47.6515 43.3487 47.476 43.4157 47.3121C43.4827 47.1483 43.5817 46.9994 43.7069 46.8742C43.8321 46.749 43.981 46.65 44.1449 46.583C44.3087 46.5159 44.4843 46.4822 44.6613 46.4837C44.8384 46.4853 45.0133 46.522 45.176 46.5919C45.3387 46.6618 45.4858 46.7634 45.6088 46.8907L47.3328 48.6147L54.3901 41.5574C54.6416 41.3145 54.9784 41.1801 55.328 41.1832C55.6776 41.1862 56.012 41.3264 56.2592 41.5736C56.5064 41.8208 56.6467 42.1553 56.6497 42.5049C56.6527 42.8544 56.5183 43.1913 56.2755 43.4427L48.2755 51.4427C48.0255 51.6928 47.6864 51.8333 47.3328 51.8334Z" fill="#0E1824"/>
<path d="M87.06 38.817C86.9867 38.8683 86.8913 38.916 86.774 38.96C86.6567 38.9967 86.521 39.015 86.367 39.015C86.1763 39.015 86.0113 38.9893 85.872 38.938C85.74 38.8867 85.652 38.8023 85.608 38.685C85.3147 37.9443 85.0653 37.31 84.86 36.782C84.6547 36.2467 84.4897 35.792 84.365 35.418H84.31C84.288 35.9093 84.266 36.364 84.244 36.782C84.2293 37.1927 84.2147 37.5923 84.2 37.981C84.1853 38.3623 84.167 38.7583 84.145 39.169C84.1303 39.5723 84.1083 40.0087 84.079 40.478C84.013 40.5 83.9213 40.522 83.804 40.544C83.694 40.566 83.5767 40.577 83.452 40.577C83.2173 40.577 83.034 40.533 82.902 40.445C82.7773 40.357 82.715 40.2177 82.715 40.027C82.715 39.8877 82.7223 39.6603 82.737 39.345C82.759 39.0223 82.781 38.6483 82.803 38.223C82.8323 37.7903 82.8617 37.332 82.891 36.848C82.9203 36.364 82.9497 35.8873 82.979 35.418C83.0157 34.9487 83.0487 34.5197 83.078 34.131C83.1367 34.0577 83.243 33.9843 83.397 33.911C83.5583 33.8303 83.7637 33.79 84.013 33.79C84.299 33.79 84.5263 33.8377 84.695 33.933C84.871 34.021 84.9993 34.1713 85.08 34.384C85.2193 34.6847 85.3587 35.0257 85.498 35.407C85.6447 35.781 85.7877 36.1587 85.927 36.54C86.0737 36.9213 86.2093 37.2697 86.334 37.585H86.378C86.6273 36.8957 86.873 36.2283 87.115 35.583C87.3643 34.9303 87.577 34.384 87.753 33.944C87.8483 33.9 87.9657 33.8633 88.105 33.834C88.2443 33.8047 88.3873 33.79 88.534 33.79C88.8053 33.79 89.0217 33.8303 89.183 33.911C89.3517 33.9917 89.4507 34.1127 89.48 34.274C89.5093 34.406 89.5423 34.6223 89.579 34.923C89.6157 35.2237 89.6523 35.5757 89.689 35.979C89.7257 36.375 89.7587 36.7893 89.788 37.222C89.8247 37.6547 89.8577 38.08 89.887 38.498C89.9237 38.9087 89.953 39.2827 89.975 39.62C89.997 39.95 90.0117 40.2103 90.019 40.401C89.9237 40.4597 89.821 40.5037 89.711 40.533C89.6083 40.5623 89.48 40.577 89.326 40.577C89.1353 40.577 88.9667 40.5403 88.82 40.467C88.6807 40.3863 88.6037 40.2397 88.589 40.027C88.5523 39.4037 88.5193 38.806 88.49 38.234C88.468 37.662 88.446 37.1377 88.424 36.661C88.4093 36.1843 88.391 35.7847 88.369 35.462H88.325C88.2077 35.7993 88.0463 36.2357 87.841 36.771C87.6357 37.299 87.3753 37.981 87.06 38.817ZM93.4297 40.665C92.7037 40.665 92.128 40.522 91.7027 40.236C91.2774 39.95 91.0647 39.5283 91.0647 38.971C91.0647 38.4797 91.2187 38.1057 91.5267 37.849C91.842 37.585 92.2967 37.4237 92.8907 37.365L94.3977 37.211V37.013C94.3977 36.727 94.295 36.5217 94.0897 36.397C93.8844 36.265 93.602 36.199 93.2427 36.199C92.9567 36.199 92.678 36.2357 92.4067 36.309C92.1354 36.3823 91.8934 36.4667 91.6807 36.562C91.6 36.5033 91.5304 36.4227 91.4717 36.32C91.4204 36.2173 91.3947 36.111 91.3947 36.001C91.3947 35.7297 91.5414 35.528 91.8347 35.396C92.04 35.308 92.2784 35.242 92.5497 35.198C92.8284 35.154 93.107 35.132 93.3857 35.132C94.1044 35.132 94.6764 35.286 95.1017 35.594C95.5344 35.8947 95.7507 36.3713 95.7507 37.024V39.565C95.7507 39.741 95.7067 39.8803 95.6187 39.983C95.538 40.0857 95.428 40.1773 95.2887 40.258C95.0834 40.3753 94.823 40.4707 94.5077 40.544C94.1924 40.6247 93.833 40.665 93.4297 40.665ZM93.4297 39.609C93.6424 39.609 93.8367 39.587 94.0127 39.543C94.1887 39.499 94.317 39.4513 94.3977 39.4V38.179L93.3307 38.278C93.0374 38.3 92.8137 38.366 92.6597 38.476C92.5057 38.5787 92.4287 38.7327 92.4287 38.938C92.4287 39.1433 92.5094 39.3083 92.6707 39.433C92.832 39.5503 93.085 39.609 93.4297 39.609ZM99.1548 38.322L98.1868 37.673L100.673 35.198C100.959 35.198 101.182 35.2603 101.344 35.385C101.512 35.5097 101.597 35.6673 101.597 35.858C101.597 36.0267 101.542 36.1733 101.432 36.298C101.329 36.4227 101.164 36.5803 100.937 36.771L99.1548 38.322ZM98.2198 37.882L99.2978 37.376L101.85 39.774C101.828 40.0307 101.751 40.2323 101.619 40.379C101.494 40.5183 101.314 40.588 101.08 40.588C100.911 40.588 100.757 40.544 100.618 40.456C100.478 40.368 100.328 40.2287 100.167 40.038L98.2198 37.882ZM97.1418 37.574L98.5388 37.64V40.489C98.4801 40.5037 98.3921 40.522 98.2748 40.544C98.1648 40.566 98.0401 40.577 97.9008 40.577C97.6441 40.577 97.4534 40.5293 97.3288 40.434C97.2041 40.3387 97.1418 40.17 97.1418 39.928V37.574ZM98.5388 38.355L97.1418 38.289V33.35C97.2004 33.328 97.2884 33.3097 97.4058 33.295C97.5231 33.273 97.6478 33.262 97.7798 33.262C98.0438 33.262 98.2344 33.3097 98.3518 33.405C98.4764 33.493 98.5388 33.6617 98.5388 33.911V38.355ZM103.322 38.597L103.256 37.618L106.182 37.189C106.16 36.9177 106.054 36.683 105.863 36.485C105.672 36.2797 105.401 36.177 105.049 36.177C104.675 36.177 104.367 36.3053 104.125 36.562C103.883 36.8187 103.758 37.1853 103.751 37.662L103.784 38.256C103.843 38.7107 104.019 39.048 104.312 39.268C104.613 39.4807 104.987 39.587 105.434 39.587C105.742 39.587 106.028 39.543 106.292 39.455C106.556 39.3597 106.765 39.2607 106.919 39.158C107.022 39.2167 107.106 39.2973 107.172 39.4C107.238 39.5027 107.271 39.6127 107.271 39.73C107.271 39.9207 107.187 40.0893 107.018 40.236C106.849 40.3753 106.618 40.4817 106.325 40.555C106.039 40.6283 105.713 40.665 105.346 40.665C104.774 40.665 104.268 40.5587 103.828 40.346C103.395 40.1333 103.054 39.818 102.805 39.4C102.563 38.9747 102.442 38.454 102.442 37.838C102.442 37.3833 102.512 36.9873 102.651 36.65C102.79 36.3053 102.981 36.023 103.223 35.803C103.465 35.5757 103.74 35.407 104.048 35.297C104.363 35.187 104.697 35.132 105.049 35.132C105.533 35.132 105.958 35.231 106.325 35.429C106.692 35.6197 106.978 35.8873 107.183 36.232C107.388 36.5767 107.491 36.9727 107.491 37.42C107.491 37.6253 107.436 37.7793 107.326 37.882C107.223 37.9847 107.077 38.0507 106.886 38.08L103.322 38.597ZM111.719 39.246C111.601 39.004 111.466 38.7033 111.312 38.344C111.165 37.9773 111.011 37.5593 110.85 37.09C110.688 36.6133 110.527 36.0817 110.366 35.495C110.439 35.407 110.542 35.3337 110.674 35.275C110.806 35.209 110.949 35.176 111.103 35.176C111.293 35.176 111.451 35.22 111.576 35.308C111.7 35.396 111.796 35.5537 111.862 35.781C112.045 36.3383 112.232 36.8957 112.423 37.453C112.621 38.003 112.826 38.564 113.039 39.136H113.083C113.215 38.8133 113.35 38.4393 113.49 38.014C113.636 37.5813 113.772 37.134 113.897 36.672C114.021 36.2027 114.124 35.7553 114.205 35.33C114.293 35.286 114.384 35.2493 114.48 35.22C114.582 35.1907 114.689 35.176 114.799 35.176C114.997 35.176 115.162 35.22 115.294 35.308C115.433 35.396 115.503 35.539 115.503 35.737C115.503 35.913 115.47 36.1477 115.404 36.441C115.345 36.7343 115.261 37.057 115.151 37.409C115.048 37.761 114.923 38.1277 114.777 38.509C114.637 38.883 114.487 39.2497 114.326 39.609C114.172 39.961 114.014 40.28 113.853 40.566C113.479 41.2333 113.134 41.7357 112.819 42.073C112.503 42.4103 112.195 42.579 111.895 42.579C111.66 42.579 111.469 42.5093 111.323 42.37C111.176 42.238 111.088 42.0693 111.059 41.864C111.213 41.7247 111.378 41.5597 111.554 41.369C111.737 41.1783 111.913 40.973 112.082 40.753C112.25 40.533 112.393 40.324 112.511 40.126C112.386 40.0893 112.258 40.0123 112.126 39.895C112.001 39.7777 111.865 39.5613 111.719 39.246ZM121.593 37.893C121.593 38.4577 121.483 38.949 121.263 39.367C121.043 39.7777 120.731 40.0967 120.328 40.324C119.924 40.5513 119.448 40.665 118.898 40.665C118.355 40.665 117.878 40.555 117.468 40.335C117.064 40.1077 116.753 39.785 116.533 39.367C116.313 38.949 116.203 38.4577 116.203 37.893C116.203 37.321 116.313 36.8297 116.533 36.419C116.76 36.0083 117.075 35.693 117.479 35.473C117.889 35.2457 118.362 35.132 118.898 35.132C119.44 35.132 119.913 35.2457 120.317 35.473C120.72 35.7003 121.032 36.0193 121.252 36.43C121.479 36.8407 121.593 37.3283 121.593 37.893ZM118.898 36.232C118.509 36.232 118.197 36.3787 117.963 36.672C117.735 36.9653 117.622 37.3723 117.622 37.893C117.622 38.421 117.732 38.8317 117.952 39.125C118.179 39.411 118.494 39.554 118.898 39.554C119.301 39.554 119.613 39.4073 119.833 39.114C120.06 38.8207 120.174 38.4137 120.174 37.893C120.174 37.3723 120.06 36.9653 119.833 36.672C119.605 36.3787 119.294 36.232 118.898 36.232ZM122.729 38.509V37.651H124.126V38.487C124.126 38.861 124.225 39.1323 124.423 39.301C124.621 39.4697 124.896 39.554 125.248 39.554C125.475 39.554 125.666 39.532 125.82 39.488C125.981 39.444 126.102 39.3963 126.183 39.345V37.651H127.569V39.477C127.569 39.6457 127.54 39.7887 127.481 39.906C127.422 40.016 127.316 40.115 127.162 40.203C126.957 40.335 126.689 40.445 126.359 40.533C126.029 40.621 125.655 40.665 125.237 40.665C124.731 40.665 124.287 40.588 123.906 40.434C123.532 40.28 123.242 40.0453 123.037 39.73C122.832 39.4147 122.729 39.0077 122.729 38.509ZM127.569 38.168H126.183V35.308C126.242 35.286 126.326 35.2677 126.436 35.253C126.553 35.231 126.678 35.22 126.81 35.22C127.081 35.22 127.276 35.2677 127.393 35.363C127.51 35.451 127.569 35.6197 127.569 35.869V38.168ZM124.126 38.168H122.729V35.308C122.788 35.286 122.876 35.2677 122.993 35.253C123.11 35.231 123.235 35.22 123.367 35.22C123.631 35.22 123.822 35.2677 123.939 35.363C124.064 35.451 124.126 35.6197 124.126 35.869V38.168ZM130.367 36.551V38.036H128.97V36.441C128.97 36.243 129.014 36.0817 129.102 35.957C129.19 35.825 129.319 35.7077 129.487 35.605C129.715 35.4657 129.997 35.352 130.334 35.264C130.672 35.176 131.031 35.132 131.412 35.132C132.109 35.132 132.457 35.3483 132.457 35.781C132.457 35.8837 132.443 35.9827 132.413 36.078C132.384 36.166 132.347 36.2393 132.303 36.298C132.23 36.2833 132.138 36.2723 132.028 36.265C131.918 36.2503 131.805 36.243 131.687 36.243C131.423 36.243 131.178 36.2723 130.95 36.331C130.723 36.3897 130.529 36.463 130.367 36.551ZM128.97 37.596L130.367 37.662V40.489C130.309 40.5037 130.221 40.522 130.103 40.544C129.993 40.566 129.869 40.577 129.729 40.577C129.473 40.577 129.282 40.5293 129.157 40.434C129.033 40.3387 128.97 40.17 128.97 39.928V37.596ZM135.567 37.596H136.942V38.883C136.942 39.1177 137.011 39.2863 137.151 39.389C137.297 39.4917 137.499 39.543 137.756 39.543C137.873 39.543 137.998 39.5283 138.13 39.499C138.269 39.4623 138.386 39.4257 138.482 39.389C138.54 39.4477 138.588 39.521 138.625 39.609C138.669 39.6897 138.691 39.785 138.691 39.895C138.691 40.115 138.592 40.2983 138.394 40.445C138.196 40.5843 137.877 40.654 137.437 40.654C136.857 40.654 136.399 40.5257 136.062 40.269C135.732 40.005 135.567 39.5723 135.567 38.971V37.596ZM136.403 36.485V35.396H138.559C138.595 35.4473 138.628 35.5207 138.658 35.616C138.687 35.7113 138.702 35.8177 138.702 35.935C138.702 36.1183 138.658 36.2577 138.57 36.353C138.482 36.441 138.364 36.485 138.218 36.485H136.403ZM136.942 37.893H135.567V33.922C135.625 33.9073 135.71 33.889 135.82 33.867C135.937 33.845 136.062 33.834 136.194 33.834C136.45 33.834 136.637 33.8817 136.755 33.977C136.879 34.0723 136.942 34.241 136.942 34.483V37.893ZM141.174 36.551V38.036H139.777V36.441C139.777 36.243 139.821 36.0817 139.909 35.957C139.997 35.825 140.125 35.7077 140.294 35.605C140.521 35.4657 140.804 35.352 141.141 35.264C141.478 35.176 141.838 35.132 142.219 35.132C142.916 35.132 143.264 35.3483 143.264 35.781C143.264 35.8837 143.249 35.9827 143.22 36.078C143.191 36.166 143.154 36.2393 143.11 36.298C143.037 36.2833 142.945 36.2723 142.835 36.265C142.725 36.2503 142.611 36.243 142.494 36.243C142.23 36.243 141.984 36.2723 141.757 36.331C141.53 36.3897 141.335 36.463 141.174 36.551ZM139.777 37.596L141.174 37.662V40.489C141.115 40.5037 141.027 40.522 140.91 40.544C140.8 40.566 140.675 40.577 140.536 40.577C140.279 40.577 140.089 40.5293 139.964 40.434C139.839 40.3387 139.777 40.17 139.777 39.928V37.596ZM144.094 33.735C144.094 33.515 144.167 33.3317 144.314 33.185C144.468 33.0383 144.662 32.965 144.897 32.965C145.132 32.965 145.322 33.0383 145.469 33.185C145.623 33.3317 145.7 33.515 145.7 33.735C145.7 33.955 145.623 34.142 145.469 34.296C145.322 34.4427 145.132 34.516 144.897 34.516C144.662 34.516 144.468 34.4427 144.314 34.296C144.167 34.142 144.094 33.955 144.094 33.735ZM144.204 37.596H145.59V40.489C145.531 40.5037 145.443 40.522 145.326 40.544C145.216 40.566 145.095 40.577 144.963 40.577C144.699 40.577 144.505 40.5293 144.38 40.434C144.263 40.3387 144.204 40.17 144.204 39.928V37.596ZM145.59 38.311H144.204V35.33C144.263 35.3153 144.347 35.297 144.457 35.275C144.574 35.253 144.699 35.242 144.831 35.242C145.095 35.242 145.286 35.2897 145.403 35.385C145.528 35.473 145.59 35.6417 145.59 35.891V38.311ZM149.503 40.654C149.217 40.654 148.953 40.6173 148.711 40.544C148.476 40.4707 148.282 40.3863 148.128 40.291V39.092C148.267 39.202 148.432 39.3047 148.623 39.4C148.814 39.4953 149.037 39.543 149.294 39.543C149.734 39.543 150.079 39.4073 150.328 39.136C150.577 38.8573 150.702 38.4357 150.702 37.871C150.702 37.475 150.643 37.1597 150.526 36.925C150.409 36.683 150.247 36.507 150.042 36.397C149.837 36.287 149.598 36.232 149.327 36.232C149.129 36.232 148.953 36.2577 148.799 36.309C148.652 36.3603 148.524 36.4153 148.414 36.474V39.928H147.028V36.331C147.028 36.155 147.061 36.012 147.127 35.902C147.2 35.792 147.314 35.6893 147.468 35.594C147.681 35.4693 147.945 35.363 148.26 35.275C148.583 35.1797 148.938 35.132 149.327 35.132C149.87 35.132 150.35 35.2273 150.768 35.418C151.193 35.6087 151.523 35.9057 151.758 36.309C152 36.7123 152.121 37.233 152.121 37.871C152.121 38.4797 152.007 38.993 151.78 39.411C151.56 39.8217 151.252 40.1333 150.856 40.346C150.46 40.5513 150.009 40.654 149.503 40.654ZM147.787 42.557C147.53 42.557 147.34 42.5093 147.215 42.414C147.09 42.3187 147.028 42.15 147.028 41.908V39.543L148.425 39.554V42.469C148.366 42.4837 148.278 42.502 148.161 42.524C148.051 42.546 147.926 42.557 147.787 42.557ZM159.531 39.026C159.531 39.5393 159.336 39.9427 158.948 40.236C158.566 40.522 158.009 40.665 157.276 40.665C156.682 40.665 156.194 40.577 155.813 40.401C155.439 40.225 155.252 39.9903 155.252 39.697C155.252 39.5577 155.281 39.4367 155.34 39.334C155.406 39.2313 155.49 39.147 155.593 39.081C155.798 39.213 156.033 39.3303 156.297 39.433C156.568 39.5357 156.88 39.587 157.232 39.587C157.84 39.587 158.145 39.4 158.145 39.026C158.145 38.872 158.09 38.7473 157.98 38.652C157.877 38.5567 157.712 38.4833 157.485 38.432L156.869 38.289C156.326 38.1717 155.923 37.9883 155.659 37.739C155.402 37.4823 155.274 37.145 155.274 36.727C155.274 36.2503 155.464 35.8653 155.846 35.572C156.227 35.2713 156.762 35.121 157.452 35.121C157.804 35.121 158.115 35.1577 158.387 35.231C158.665 35.297 158.885 35.396 159.047 35.528C159.208 35.66 159.289 35.8177 159.289 36.001C159.289 36.133 159.259 36.2503 159.201 36.353C159.149 36.4483 159.08 36.5253 158.992 36.584C158.904 36.5327 158.783 36.4777 158.629 36.419C158.475 36.3603 158.302 36.309 158.112 36.265C157.921 36.221 157.734 36.199 157.551 36.199C157.265 36.199 157.041 36.243 156.88 36.331C156.718 36.419 156.638 36.551 156.638 36.727C156.638 36.8443 156.682 36.947 156.77 37.035C156.865 37.1157 157.026 37.1817 157.254 37.233L157.793 37.365C158.401 37.5043 158.841 37.7097 159.113 37.981C159.391 38.245 159.531 38.5933 159.531 39.026ZM162.792 40.665C162.066 40.665 161.49 40.522 161.065 40.236C160.64 39.95 160.427 39.5283 160.427 38.971C160.427 38.4797 160.581 38.1057 160.889 37.849C161.204 37.585 161.659 37.4237 162.253 37.365L163.76 37.211V37.013C163.76 36.727 163.657 36.5217 163.452 36.397C163.247 36.265 162.964 36.199 162.605 36.199C162.319 36.199 162.04 36.2357 161.769 36.309C161.498 36.3823 161.256 36.4667 161.043 36.562C160.962 36.5033 160.893 36.4227 160.834 36.32C160.783 36.2173 160.757 36.111 160.757 36.001C160.757 35.7297 160.904 35.528 161.197 35.396C161.402 35.308 161.641 35.242 161.912 35.198C162.191 35.154 162.469 35.132 162.748 35.132C163.467 35.132 164.039 35.286 164.464 35.594C164.897 35.8947 165.113 36.3713 165.113 37.024V39.565C165.113 39.741 165.069 39.8803 164.981 39.983C164.9 40.0857 164.79 40.1773 164.651 40.258C164.446 40.3753 164.185 40.4707 163.87 40.544C163.555 40.6247 163.195 40.665 162.792 40.665ZM162.792 39.609C163.005 39.609 163.199 39.587 163.375 39.543C163.551 39.499 163.679 39.4513 163.76 39.4V38.179L162.693 38.278C162.4 38.3 162.176 38.366 162.022 38.476C161.868 38.5787 161.791 38.7327 161.791 38.938C161.791 39.1433 161.872 39.3083 162.033 39.433C162.194 39.5503 162.447 39.609 162.792 39.609ZM167.626 36.716V35.638H169.826C169.855 35.6893 169.885 35.7627 169.914 35.858C169.951 35.9533 169.969 36.056 169.969 36.166C169.969 36.3567 169.925 36.496 169.837 36.584C169.749 36.672 169.632 36.716 169.485 36.716H167.626ZM167.846 35.121V36.551H166.504V35.066C166.504 34.5967 166.599 34.219 166.79 33.933C166.981 33.6397 167.241 33.4233 167.571 33.284C167.908 33.1447 168.293 33.075 168.726 33.075C169.21 33.075 169.573 33.141 169.815 33.273C170.064 33.3977 170.189 33.5883 170.189 33.845C170.189 33.9623 170.163 34.0687 170.112 34.164C170.068 34.252 170.013 34.3253 169.947 34.384C169.815 34.3253 169.661 34.2813 169.485 34.252C169.309 34.2153 169.126 34.197 168.935 34.197C168.561 34.197 168.286 34.2703 168.11 34.417C167.934 34.5563 167.846 34.791 167.846 35.121ZM166.504 36.177H167.901V40.489C167.842 40.5037 167.754 40.522 167.637 40.544C167.527 40.566 167.402 40.577 167.263 40.577C167.006 40.577 166.816 40.5293 166.691 40.434C166.566 40.3387 166.504 40.17 166.504 39.928V36.177ZM171.384 38.597L171.318 37.618L174.244 37.189C174.222 36.9177 174.116 36.683 173.925 36.485C173.735 36.2797 173.463 36.177 173.111 36.177C172.737 36.177 172.429 36.3053 172.187 36.562C171.945 36.8187 171.821 37.1853 171.813 37.662L171.846 38.256C171.905 38.7107 172.081 39.048 172.374 39.268C172.675 39.4807 173.049 39.587 173.496 39.587C173.804 39.587 174.09 39.543 174.354 39.455C174.618 39.3597 174.827 39.2607 174.981 39.158C175.084 39.2167 175.168 39.2973 175.234 39.4C175.3 39.5027 175.333 39.6127 175.333 39.73C175.333 39.9207 175.249 40.0893 175.08 40.236C174.912 40.3753 174.681 40.4817 174.387 40.555C174.101 40.6283 173.775 40.665 173.408 40.665C172.836 40.665 172.33 40.5587 171.89 40.346C171.458 40.1333 171.117 39.818 170.867 39.4C170.625 38.9747 170.504 38.454 170.504 37.838C170.504 37.3833 170.574 36.9873 170.713 36.65C170.853 36.3053 171.043 36.023 171.285 35.803C171.527 35.5757 171.802 35.407 172.11 35.297C172.426 35.187 172.759 35.132 173.111 35.132C173.595 35.132 174.021 35.231 174.387 35.429C174.754 35.6197 175.04 35.8873 175.245 36.232C175.451 36.5767 175.553 36.9727 175.553 37.42C175.553 37.6253 175.498 37.7793 175.388 37.882C175.286 37.9847 175.139 38.0507 174.948 38.08L171.384 38.597ZM176.666 37.596H178.041V38.883C178.041 39.1177 178.111 39.2863 178.25 39.389C178.397 39.4917 178.599 39.543 178.855 39.543C178.973 39.543 179.097 39.5283 179.229 39.499C179.369 39.4623 179.486 39.4257 179.581 39.389C179.64 39.4477 179.688 39.521 179.724 39.609C179.768 39.6897 179.79 39.785 179.79 39.895C179.79 40.115 179.691 40.2983 179.493 40.445C179.295 40.5843 178.976 40.654 178.536 40.654C177.957 40.654 177.499 40.5257 177.161 40.269C176.831 40.005 176.666 39.5723 176.666 38.971V37.596ZM177.502 36.485V35.396H179.658C179.695 35.4473 179.728 35.5207 179.757 35.616C179.787 35.7113 179.801 35.8177 179.801 35.935C179.801 36.1183 179.757 36.2577 179.669 36.353C179.581 36.441 179.464 36.485 179.317 36.485H177.502ZM178.041 37.893H176.666V33.922C176.725 33.9073 176.809 33.889 176.919 33.867C177.037 33.845 177.161 33.834 177.293 33.834C177.55 33.834 177.737 33.8817 177.854 33.977C177.979 34.0723 178.041 34.241 178.041 34.483V37.893ZM181.833 39.246C181.716 39.004 181.58 38.7033 181.426 38.344C181.279 37.9773 181.125 37.5593 180.964 37.09C180.803 36.6133 180.641 36.0817 180.48 35.495C180.553 35.407 180.656 35.3337 180.788 35.275C180.92 35.209 181.063 35.176 181.217 35.176C181.408 35.176 181.565 35.22 181.69 35.308C181.815 35.396 181.91 35.5537 181.976 35.781C182.159 36.3383 182.346 36.8957 182.537 37.453C182.735 38.003 182.94 38.564 183.153 39.136H183.197C183.329 38.8133 183.465 38.4393 183.604 38.014C183.751 37.5813 183.886 37.134 184.011 36.672C184.136 36.2027 184.238 35.7553 184.319 35.33C184.407 35.286 184.499 35.2493 184.594 35.22C184.697 35.1907 184.803 35.176 184.913 35.176C185.111 35.176 185.276 35.22 185.408 35.308C185.547 35.396 185.617 35.539 185.617 35.737C185.617 35.913 185.584 36.1477 185.518 36.441C185.459 36.7343 185.375 37.057 185.265 37.409C185.162 37.761 185.038 38.1277 184.891 38.509C184.752 38.883 184.601 39.2497 184.44 39.609C184.286 39.961 184.128 40.28 183.967 40.566C183.593 41.2333 183.248 41.7357 182.933 42.073C182.618 42.4103 182.31 42.579 182.009 42.579C181.774 42.579 181.584 42.5093 181.437 42.37C181.29 42.238 181.202 42.0693 181.173 41.864C181.327 41.7247 181.492 41.5597 181.668 41.369C181.851 41.1783 182.027 40.973 182.196 40.753C182.365 40.533 182.508 40.324 182.625 40.126C182.5 40.0893 182.372 40.0123 182.24 39.895C182.115 39.7777 181.98 39.5613 181.833 39.246ZM189.981 36.716V35.638H192.181C192.21 35.6893 192.239 35.7627 192.269 35.858C192.305 35.9533 192.324 36.056 192.324 36.166C192.324 36.3567 192.28 36.496 192.192 36.584C192.104 36.672 191.986 36.716 191.84 36.716H189.981ZM190.201 35.121V36.551H188.859V35.066C188.859 34.5967 188.954 34.219 189.145 33.933C189.335 33.6397 189.596 33.4233 189.926 33.284C190.263 33.1447 190.648 33.075 191.081 33.075C191.565 33.075 191.928 33.141 192.17 33.273C192.419 33.3977 192.544 33.5883 192.544 33.845C192.544 33.9623 192.518 34.0687 192.467 34.164C192.423 34.252 192.368 34.3253 192.302 34.384C192.17 34.3253 192.016 34.2813 191.84 34.252C191.664 34.2153 191.48 34.197 191.29 34.197C190.916 34.197 190.641 34.2703 190.465 34.417C190.289 34.5563 190.201 34.791 190.201 35.121ZM188.859 36.177H190.256V40.489C190.197 40.5037 190.109 40.522 189.992 40.544C189.882 40.566 189.757 40.577 189.618 40.577C189.361 40.577 189.17 40.5293 189.046 40.434C188.921 40.3387 188.859 40.17 188.859 39.928V36.177ZM193.325 33.735C193.325 33.515 193.398 33.3317 193.545 33.185C193.699 33.0383 193.893 32.965 194.128 32.965C194.362 32.965 194.553 33.0383 194.7 33.185C194.854 33.3317 194.931 33.515 194.931 33.735C194.931 33.955 194.854 34.142 194.7 34.296C194.553 34.4427 194.362 34.516 194.128 34.516C193.893 34.516 193.699 34.4427 193.545 34.296C193.398 34.142 193.325 33.955 193.325 33.735ZM193.435 37.596H194.821V40.489C194.762 40.5037 194.674 40.522 194.557 40.544C194.447 40.566 194.326 40.577 194.194 40.577C193.93 40.577 193.735 40.5293 193.611 40.434C193.493 40.3387 193.435 40.17 193.435 39.928V37.596ZM194.821 38.311H193.435V35.33C193.493 35.3153 193.578 35.297 193.688 35.275C193.805 35.253 193.93 35.242 194.062 35.242C194.326 35.242 194.516 35.2897 194.634 35.385C194.758 35.473 194.821 35.6417 194.821 35.891V38.311ZM197.667 36.551V38.036H196.27V36.441C196.27 36.243 196.314 36.0817 196.402 35.957C196.49 35.825 196.618 35.7077 196.787 35.605C197.014 35.4657 197.297 35.352 197.634 35.264C197.971 35.176 198.331 35.132 198.712 35.132C199.409 35.132 199.757 35.3483 199.757 35.781C199.757 35.8837 199.742 35.9827 199.713 36.078C199.684 36.166 199.647 36.2393 199.603 36.298C199.53 36.2833 199.438 36.2723 199.328 36.265C199.218 36.2503 199.104 36.243 198.987 36.243C198.723 36.243 198.477 36.2723 198.25 36.331C198.023 36.3897 197.828 36.463 197.667 36.551ZM196.27 37.596L197.667 37.662V40.489C197.608 40.5037 197.52 40.522 197.403 40.544C197.293 40.566 197.168 40.577 197.029 40.577C196.772 40.577 196.582 40.5293 196.457 40.434C196.332 40.3387 196.27 40.17 196.27 39.928V37.596ZM204.712 39.026C204.712 39.5393 204.518 39.9427 204.129 40.236C203.748 40.522 203.191 40.665 202.457 40.665C201.863 40.665 201.376 40.577 200.994 40.401C200.62 40.225 200.433 39.9903 200.433 39.697C200.433 39.5577 200.463 39.4367 200.521 39.334C200.587 39.2313 200.672 39.147 200.774 39.081C200.98 39.213 201.214 39.3303 201.478 39.433C201.75 39.5357 202.061 39.587 202.413 39.587C203.022 39.587 203.326 39.4 203.326 39.026C203.326 38.872 203.271 38.7473 203.161 38.652C203.059 38.5567 202.894 38.4833 202.666 38.432L202.05 38.289C201.508 38.1717 201.104 37.9883 200.84 37.739C200.584 37.4823 200.455 37.145 200.455 36.727C200.455 36.2503 200.646 35.8653 201.027 35.572C201.409 35.2713 201.944 35.121 202.633 35.121C202.985 35.121 203.297 35.1577 203.568 35.231C203.847 35.297 204.067 35.396 204.228 35.528C204.39 35.66 204.47 35.8177 204.47 36.001C204.47 36.133 204.441 36.2503 204.382 36.353C204.331 36.4483 204.261 36.5253 204.173 36.584C204.085 36.5327 203.964 36.4777 203.81 36.419C203.656 36.3603 203.484 36.309 203.293 36.265C203.103 36.221 202.916 36.199 202.732 36.199C202.446 36.199 202.223 36.243 202.061 36.331C201.9 36.419 201.819 36.551 201.819 36.727C201.819 36.8443 201.863 36.947 201.951 37.035C202.047 37.1157 202.208 37.1817 202.435 37.233L202.974 37.365C203.583 37.5043 204.023 37.7097 204.294 37.981C204.573 38.245 204.712 38.5933 204.712 39.026ZM205.831 37.596H207.206V38.883C207.206 39.1177 207.276 39.2863 207.415 39.389C207.562 39.4917 207.764 39.543 208.02 39.543C208.138 39.543 208.262 39.5283 208.394 39.499C208.534 39.4623 208.651 39.4257 208.746 39.389C208.805 39.4477 208.853 39.521 208.889 39.609C208.933 39.6897 208.955 39.785 208.955 39.895C208.955 40.115 208.856 40.2983 208.658 40.445C208.46 40.5843 208.141 40.654 207.701 40.654C207.122 40.654 206.664 40.5257 206.326 40.269C205.996 40.005 205.831 39.5723 205.831 38.971V37.596ZM206.667 36.485V35.396H208.823C208.86 35.4473 208.893 35.5207 208.922 35.616C208.952 35.7113 208.966 35.8177 208.966 35.935C208.966 36.1183 208.922 36.2577 208.834 36.353C208.746 36.441 208.629 36.485 208.482 36.485H206.667ZM207.206 37.893H205.831V33.922C205.89 33.9073 205.974 33.889 206.084 33.867C206.202 33.845 206.326 33.834 206.458 33.834C206.715 33.834 206.902 33.8817 207.019 33.977C207.144 34.0723 207.206 34.241 207.206 34.483V37.893Z" fill="#475569"/>
<path d="M87.863 52.549C87.863 52.6443 87.83 52.7323 87.764 52.813C87.7053 52.8863 87.6357 52.9413 87.555 52.978C87.3717 52.846 87.148 52.7213 86.884 52.604C86.6273 52.4867 86.2937 52.428 85.883 52.428C85.4357 52.428 85.0323 52.5307 84.673 52.736C84.321 52.9413 84.0387 53.2493 83.826 53.66C83.6207 54.0633 83.518 54.5657 83.518 55.167C83.518 56.069 83.738 56.7473 84.178 57.202C84.6253 57.6567 85.2047 57.884 85.916 57.884C86.2973 57.884 86.631 57.829 86.917 57.719C87.203 57.609 87.4377 57.4843 87.621 57.345C87.6943 57.3743 87.764 57.4293 87.83 57.51C87.896 57.5833 87.929 57.6713 87.929 57.774C87.929 57.8473 87.907 57.9207 87.863 57.994C87.8263 58.06 87.7603 58.126 87.665 58.192C87.4963 58.3093 87.2653 58.412 86.972 58.5C86.6787 58.5953 86.3047 58.643 85.85 58.643C85.2413 58.643 84.6877 58.5147 84.189 58.258C83.6977 57.994 83.309 57.6053 83.023 57.092C82.737 56.5787 82.594 55.937 82.594 55.167C82.594 54.397 82.7407 53.7517 83.034 53.231C83.3347 52.7103 83.727 52.3217 84.211 52.065C84.7023 51.801 85.2377 51.669 85.817 51.669C86.2203 51.669 86.576 51.713 86.884 51.801C87.192 51.889 87.4303 52.0027 87.599 52.142C87.775 52.274 87.863 52.4097 87.863 52.549ZM93.7028 56.311H92.8228V55.299C92.8228 54.859 92.6981 54.5327 92.4488 54.32C92.2068 54.1073 91.8915 54.001 91.5028 54.001C91.2168 54.001 90.9491 54.056 90.6998 54.166C90.4578 54.276 90.2525 54.408 90.0838 54.562L89.9188 53.847C90.0948 53.7223 90.3258 53.5977 90.6118 53.473C90.9051 53.341 91.2425 53.275 91.6238 53.275C92.2325 53.275 92.7311 53.44 93.1198 53.77C93.5085 54.1 93.7028 54.6023 93.7028 55.277V56.311ZM89.3138 55.596H90.1938V58.478C90.1571 58.4927 90.1021 58.5073 90.0288 58.522C89.9555 58.544 89.8748 58.555 89.7868 58.555C89.6328 58.555 89.5155 58.5257 89.4348 58.467C89.3541 58.401 89.3138 58.2983 89.3138 58.159V55.596ZM92.8228 55.607L93.7028 55.618V58.478C93.6661 58.4927 93.6075 58.5073 93.5268 58.522C93.4535 58.544 93.3765 58.555 93.2958 58.555C93.1345 58.555 93.0135 58.5257 92.9328 58.467C92.8595 58.401 92.8228 58.2983 92.8228 58.159V55.607ZM90.1938 56.025H89.3138V51.372C89.3505 51.3573 89.4055 51.3427 89.4788 51.328C89.5595 51.306 89.6438 51.295 89.7318 51.295C89.8858 51.295 89.9995 51.328 90.0728 51.394C90.1535 51.4527 90.1938 51.5517 90.1938 51.691V56.025ZM95.6694 56.52L95.6254 55.827L98.9474 55.376C98.9181 54.9727 98.7787 54.6427 98.5294 54.386C98.2801 54.122 97.9354 53.99 97.4954 53.99C97.0407 53.99 96.6631 54.155 96.3624 54.485C96.0691 54.8077 95.9224 55.2733 95.9224 55.882V56.124C95.9737 56.7107 96.1644 57.158 96.4944 57.466C96.8317 57.7667 97.2901 57.917 97.8694 57.917C98.1774 57.917 98.4561 57.8657 98.7054 57.763C98.9547 57.6603 99.1527 57.5503 99.2994 57.433C99.3801 57.4843 99.4424 57.5467 99.4864 57.62C99.5377 57.686 99.5634 57.763 99.5634 57.851C99.5634 57.9903 99.4827 58.1223 99.3214 58.247C99.1674 58.3643 98.9584 58.4597 98.6944 58.533C98.4377 58.6063 98.1481 58.643 97.8254 58.643C97.2607 58.643 96.7694 58.5403 96.3514 58.335C95.9407 58.1297 95.6217 57.8253 95.3944 57.422C95.1744 57.0113 95.0644 56.5127 95.0644 55.926C95.0644 55.508 95.1231 55.1377 95.2404 54.815C95.3651 54.485 95.5337 54.2063 95.7464 53.979C95.9664 53.7517 96.2267 53.5793 96.5274 53.462C96.8281 53.3373 97.1544 53.275 97.5064 53.275C97.9537 53.275 98.3461 53.3703 98.6834 53.561C99.0281 53.7517 99.2957 54.0193 99.4864 54.364C99.6844 54.7013 99.7834 55.09 99.7834 55.53C99.7834 55.6913 99.7467 55.8087 99.6734 55.882C99.6001 55.948 99.4974 55.9883 99.3654 56.003L95.6694 56.52ZM103.408 54.012C102.91 54.012 102.495 54.1807 102.165 54.518C101.835 54.8553 101.67 55.3393 101.67 55.97C101.67 56.5933 101.828 57.0737 102.143 57.411C102.466 57.7483 102.888 57.917 103.408 57.917C103.716 57.917 103.973 57.8767 104.178 57.796C104.384 57.708 104.567 57.609 104.728 57.499C104.809 57.543 104.875 57.598 104.926 57.664C104.978 57.73 105.003 57.8107 105.003 57.906C105.003 58.1113 104.849 58.2873 104.541 58.434C104.241 58.5733 103.863 58.643 103.408 58.643C102.902 58.643 102.448 58.5477 102.044 58.357C101.648 58.159 101.337 57.862 101.109 57.466C100.882 57.07 100.768 56.5713 100.768 55.97C100.768 55.376 100.886 54.881 101.12 54.485C101.355 54.0817 101.67 53.781 102.066 53.583C102.47 53.3777 102.91 53.275 103.386 53.275C103.841 53.275 104.215 53.352 104.508 53.506C104.809 53.66 104.959 53.836 104.959 54.034C104.959 54.122 104.934 54.199 104.882 54.265C104.831 54.331 104.765 54.3823 104.684 54.419C104.523 54.309 104.343 54.2137 104.145 54.133C103.955 54.0523 103.709 54.012 103.408 54.012ZM107.66 56.179L107.11 55.75L109.618 53.319C109.794 53.3263 109.93 53.3703 110.025 53.451C110.128 53.5243 110.179 53.6233 110.179 53.748C110.179 53.8507 110.146 53.9423 110.08 54.023C110.022 54.1037 109.934 54.1917 109.816 54.287L107.66 56.179ZM107.088 55.893L107.704 55.53L110.498 58.038C110.484 58.1993 110.432 58.3277 110.344 58.423C110.264 58.5183 110.154 58.566 110.014 58.566C109.904 58.566 109.802 58.5367 109.706 58.478C109.618 58.4193 109.527 58.3423 109.431 58.247L107.088 55.893ZM106.329 55.552L107.209 55.684V58.478C107.173 58.4927 107.118 58.5073 107.044 58.522C106.971 58.544 106.89 58.555 106.802 58.555C106.648 58.555 106.531 58.5257 106.45 58.467C106.37 58.401 106.329 58.2983 106.329 58.159V55.552ZM107.209 56.113L106.329 55.981V51.372C106.366 51.3573 106.421 51.3427 106.494 51.328C106.575 51.306 106.659 51.295 106.747 51.295C106.901 51.295 107.015 51.328 107.088 51.394C107.169 51.4527 107.209 51.5517 107.209 51.691V56.113ZM118.281 56.311H117.401V55.299C117.401 54.859 117.276 54.5327 117.027 54.32C116.785 54.1073 116.47 54.001 116.081 54.001C115.795 54.001 115.527 54.056 115.278 54.166C115.036 54.276 114.831 54.408 114.662 54.562L114.497 53.847C114.673 53.7223 114.904 53.5977 115.19 53.473C115.483 53.341 115.821 53.275 116.202 53.275C116.811 53.275 117.309 53.44 117.698 53.77C118.087 54.1 118.281 54.6023 118.281 55.277V56.311ZM113.892 55.596H114.772V58.478C114.735 58.4927 114.68 58.5073 114.607 58.522C114.534 58.544 114.453 58.555 114.365 58.555C114.211 58.555 114.094 58.5257 114.013 58.467C113.932 58.401 113.892 58.2983 113.892 58.159V55.596ZM117.401 55.607L118.281 55.618V58.478C118.244 58.4927 118.186 58.5073 118.105 58.522C118.032 58.544 117.955 58.555 117.874 58.555C117.713 58.555 117.592 58.5257 117.511 58.467C117.438 58.401 117.401 58.2983 117.401 58.159V55.607ZM114.772 56.025H113.892V51.372C113.929 51.3573 113.984 51.3427 114.057 51.328C114.138 51.306 114.222 51.295 114.31 51.295C114.464 51.295 114.578 51.328 114.651 51.394C114.732 51.4527 114.772 51.5517 114.772 51.691V56.025ZM124.648 55.959C124.648 56.5017 124.545 56.9747 124.34 57.378C124.134 57.7813 123.845 58.093 123.471 58.313C123.097 58.533 122.657 58.643 122.151 58.643C121.645 58.643 121.201 58.533 120.82 58.313C120.446 58.093 120.156 57.7813 119.951 57.378C119.745 56.9747 119.643 56.5017 119.643 55.959C119.643 55.409 119.745 54.936 119.951 54.54C120.163 54.1367 120.457 53.825 120.831 53.605C121.212 53.385 121.652 53.275 122.151 53.275C122.649 53.275 123.086 53.385 123.46 53.605C123.834 53.825 124.123 54.1367 124.329 54.54C124.541 54.936 124.648 55.409 124.648 55.959ZM122.151 54.001C121.659 54.001 121.267 54.177 120.974 54.529C120.688 54.8737 120.545 55.3503 120.545 55.959C120.545 56.575 120.684 57.0553 120.963 57.4C121.249 57.7447 121.645 57.917 122.151 57.917C122.649 57.917 123.038 57.7447 123.317 57.4C123.603 57.048 123.746 56.5677 123.746 55.959C123.746 55.3503 123.603 54.8737 123.317 54.529C123.038 54.177 122.649 54.001 122.151 54.001ZM129.145 54.716C129.013 55.178 128.87 55.64 128.716 56.102C128.569 56.564 128.426 56.9967 128.287 57.4C128.148 57.8033 128.019 58.1517 127.902 58.445C127.843 58.4817 127.777 58.511 127.704 58.533C127.631 58.555 127.532 58.566 127.407 58.566C127.29 58.566 127.18 58.544 127.077 58.5C126.982 58.4633 126.916 58.401 126.879 58.313C126.806 58.1663 126.721 57.9537 126.626 57.675C126.538 57.3963 126.443 57.0773 126.34 56.718C126.245 56.3587 126.146 55.9883 126.043 55.607C125.94 55.2183 125.845 54.8443 125.757 54.485C125.676 54.1257 125.607 53.8067 125.548 53.528C125.599 53.4767 125.662 53.429 125.735 53.385C125.816 53.341 125.911 53.319 126.021 53.319C126.16 53.319 126.263 53.3593 126.329 53.44C126.402 53.5133 126.454 53.6343 126.483 53.803C126.549 54.111 126.622 54.4593 126.703 54.848C126.791 55.2367 126.879 55.6217 126.967 56.003C127.062 56.3843 127.147 56.729 127.22 57.037C127.301 57.3377 127.359 57.5613 127.396 57.708H127.44C127.499 57.532 127.59 57.246 127.715 56.85C127.84 56.4467 127.986 55.9883 128.155 55.475C128.331 54.9617 128.507 54.441 128.683 53.913C128.742 53.8763 128.811 53.8507 128.892 53.836C128.973 53.814 129.061 53.803 129.156 53.803C129.288 53.803 129.398 53.8287 129.486 53.88C129.574 53.924 129.633 53.9937 129.662 54.089C129.838 54.595 130.003 55.0937 130.157 55.585C130.311 56.069 130.447 56.5017 130.564 56.883C130.681 57.257 130.766 57.5357 130.817 57.719H130.872C131.041 57.0663 131.224 56.366 131.422 55.618C131.62 54.87 131.781 54.1367 131.906 53.418C132.009 53.352 132.133 53.319 132.28 53.319C132.405 53.319 132.504 53.3483 132.577 53.407C132.65 53.4657 132.687 53.5573 132.687 53.682C132.687 53.7627 132.661 53.9167 132.61 54.144C132.566 54.3713 132.504 54.639 132.423 54.947C132.342 55.255 132.251 55.585 132.148 55.937C132.053 56.2817 131.954 56.619 131.851 56.949C131.748 57.2717 131.649 57.565 131.554 57.829C131.466 58.093 131.389 58.2983 131.323 58.445C131.286 58.4743 131.224 58.5 131.136 58.522C131.055 58.5513 130.96 58.566 130.85 58.566C130.549 58.566 130.373 58.4963 130.322 58.357C130.219 58.093 130.102 57.7667 129.97 57.378C129.838 56.982 129.702 56.5567 129.563 56.102C129.424 55.64 129.284 55.178 129.145 54.716ZM140.263 54.98V56.245H139.383V55.046C139.383 54.6867 139.277 54.4227 139.064 54.254C138.859 54.0853 138.584 54.001 138.239 54.001C138.012 54.001 137.792 54.0377 137.579 54.111C137.366 54.1843 137.187 54.2687 137.04 54.364V56.245H136.16V54.408C136.16 54.2613 136.189 54.1367 136.248 54.034C136.314 53.9313 136.424 53.8323 136.578 53.737C136.776 53.6123 137.025 53.506 137.326 53.418C137.634 53.3227 137.942 53.275 138.25 53.275C138.624 53.275 138.954 53.3337 139.24 53.451C139.526 53.561 139.739 53.715 139.878 53.913C139.922 53.957 139.959 53.9973 139.988 54.034C140.017 54.0707 140.047 54.1183 140.076 54.177C140.127 54.265 140.171 54.3787 140.208 54.518C140.245 54.6573 140.263 54.8113 140.263 54.98ZM143.486 55.002V56.245H142.606V55.046C142.606 54.6867 142.503 54.4227 142.298 54.254C142.093 54.0853 141.818 54.001 141.473 54.001C141.216 54.001 140.967 54.056 140.725 54.166C140.49 54.2687 140.278 54.419 140.087 54.617L139.735 53.979C139.926 53.7883 140.175 53.6233 140.483 53.484C140.791 53.3447 141.143 53.275 141.539 53.275C141.935 53.275 142.276 53.3373 142.562 53.462C142.855 53.5867 143.083 53.7773 143.244 54.034C143.405 54.2907 143.486 54.6133 143.486 55.002ZM136.16 55.662H137.04V58.478C137.003 58.4927 136.948 58.5073 136.875 58.522C136.802 58.544 136.721 58.555 136.633 58.555C136.479 58.555 136.362 58.5257 136.281 58.467C136.2 58.401 136.16 58.2983 136.16 58.159V55.662ZM139.383 55.662H140.263V58.478C140.226 58.4927 140.168 58.5073 140.087 58.522C140.014 58.544 139.937 58.555 139.856 58.555C139.695 58.555 139.574 58.5257 139.493 58.467C139.42 58.401 139.383 58.2983 139.383 58.159V55.662ZM142.606 55.662H143.486V58.478C143.449 58.4927 143.391 58.5073 143.31 58.522C143.237 58.544 143.16 58.555 143.079 58.555C142.918 58.555 142.797 58.5257 142.716 58.467C142.643 58.401 142.606 58.2983 142.606 58.159V55.662ZM146.955 58.654C146.266 58.654 145.731 58.5183 145.349 58.247C144.975 57.9757 144.788 57.5833 144.788 57.07C144.788 56.5933 144.946 56.2303 145.261 55.981C145.584 55.7243 146.028 55.5703 146.592 55.519L148.154 55.365V55.057C148.154 54.6903 148.044 54.4227 147.824 54.254C147.604 54.0853 147.307 54.001 146.933 54.001C146.633 54.001 146.343 54.045 146.064 54.133C145.793 54.221 145.551 54.32 145.338 54.43C145.28 54.3787 145.225 54.32 145.173 54.254C145.129 54.1807 145.107 54.1073 145.107 54.034C145.107 53.8433 145.214 53.6967 145.426 53.594C145.624 53.4913 145.852 53.4143 146.108 53.363C146.372 53.3043 146.651 53.275 146.944 53.275C147.582 53.275 148.088 53.418 148.462 53.704C148.836 53.99 149.023 54.441 149.023 55.057V57.664C149.023 57.8253 148.99 57.95 148.924 58.038C148.866 58.1187 148.774 58.1957 148.649 58.269C148.473 58.3643 148.239 58.4523 147.945 58.533C147.652 58.6137 147.322 58.654 146.955 58.654ZM146.955 57.928C147.263 57.928 147.516 57.8987 147.714 57.84C147.92 57.774 148.066 57.7117 148.154 57.653V56.058L146.79 56.201C146.409 56.2303 146.127 56.3147 145.943 56.454C145.76 56.5933 145.668 56.795 145.668 57.059C145.668 57.3303 145.775 57.543 145.987 57.697C146.207 57.851 146.53 57.928 146.955 57.928ZM151.983 56.179L151.433 55.75L153.941 53.319C154.117 53.3263 154.252 53.3703 154.348 53.451C154.45 53.5243 154.502 53.6233 154.502 53.748C154.502 53.8507 154.469 53.9423 154.403 54.023C154.344 54.1037 154.256 54.1917 154.139 54.287L151.983 56.179ZM151.411 55.893L152.027 55.53L154.821 58.038C154.806 58.1993 154.755 58.3277 154.667 58.423C154.586 58.5183 154.476 58.566 154.337 58.566C154.227 58.566 154.124 58.5367 154.029 58.478C153.941 58.4193 153.849 58.3423 153.754 58.247L151.411 55.893ZM150.652 55.552L151.532 55.684V58.478C151.495 58.4927 151.44 58.5073 151.367 58.522C151.293 58.544 151.213 58.555 151.125 58.555C150.971 58.555 150.853 58.5257 150.773 58.467C150.692 58.401 150.652 58.2983 150.652 58.159V55.552ZM151.532 56.113L150.652 55.981V51.372C150.688 51.3573 150.743 51.3427 150.817 51.328C150.897 51.306 150.982 51.295 151.07 51.295C151.224 51.295 151.337 51.328 151.411 51.394C151.491 51.4527 151.532 51.5517 151.532 51.691V56.113ZM156.202 56.52L156.158 55.827L159.48 55.376C159.45 54.9727 159.311 54.6427 159.062 54.386C158.812 54.122 158.468 53.99 158.028 53.99C157.573 53.99 157.195 54.155 156.895 54.485C156.601 54.8077 156.455 55.2733 156.455 55.882V56.124C156.506 56.7107 156.697 57.158 157.027 57.466C157.364 57.7667 157.822 57.917 158.402 57.917C158.71 57.917 158.988 57.8657 159.238 57.763C159.487 57.6603 159.685 57.5503 159.832 57.433C159.912 57.4843 159.975 57.5467 160.019 57.62C160.07 57.686 160.096 57.763 160.096 57.851C160.096 57.9903 160.015 58.1223 159.854 58.247C159.7 58.3643 159.491 58.4597 159.227 58.533C158.97 58.6063 158.68 58.643 158.358 58.643C157.793 58.643 157.302 58.5403 156.884 58.335C156.473 58.1297 156.154 57.8253 155.927 57.422C155.707 57.0113 155.597 56.5127 155.597 55.926C155.597 55.508 155.655 55.1377 155.773 54.815C155.897 54.485 156.066 54.2063 156.279 53.979C156.499 53.7517 156.759 53.5793 157.06 53.462C157.36 53.3373 157.687 53.275 158.039 53.275C158.486 53.275 158.878 53.3703 159.216 53.561C159.56 53.7517 159.828 54.0193 160.019 54.364C160.217 54.7013 160.316 55.09 160.316 55.53C160.316 55.6913 160.279 55.8087 160.206 55.882C160.132 55.948 160.03 55.9883 159.898 56.003L156.202 56.52ZM168.508 55.959C168.508 56.5017 168.405 56.9747 168.2 57.378C167.995 57.7813 167.705 58.093 167.331 58.313C166.957 58.533 166.517 58.643 166.011 58.643C165.505 58.643 165.061 58.533 164.68 58.313C164.306 58.093 164.016 57.7813 163.811 57.378C163.606 56.9747 163.503 56.5017 163.503 55.959C163.503 55.409 163.606 54.936 163.811 54.54C164.024 54.1367 164.317 53.825 164.691 53.605C165.072 53.385 165.512 53.275 166.011 53.275C166.51 53.275 166.946 53.385 167.32 53.605C167.694 53.825 167.984 54.1367 168.189 54.54C168.402 54.936 168.508 55.409 168.508 55.959ZM166.011 54.001C165.52 54.001 165.127 54.177 164.834 54.529C164.548 54.8737 164.405 55.3503 164.405 55.959C164.405 56.575 164.544 57.0553 164.823 57.4C165.109 57.7447 165.505 57.917 166.011 57.917C166.51 57.917 166.898 57.7447 167.177 57.4C167.463 57.048 167.606 56.5677 167.606 55.959C167.606 55.3503 167.463 54.8737 167.177 54.529C166.898 54.177 166.51 54.001 166.011 54.001ZM169.869 56.641V55.64H170.749V56.597C170.749 57.0663 170.874 57.4037 171.123 57.609C171.372 57.8143 171.717 57.917 172.157 57.917C172.45 57.917 172.7 57.8877 172.905 57.829C173.11 57.763 173.272 57.697 173.389 57.631V55.64H174.269V57.598C174.269 57.752 174.247 57.8767 174.203 57.972C174.166 58.06 174.071 58.148 173.917 58.236C173.756 58.3313 173.525 58.423 173.224 58.511C172.923 58.599 172.564 58.643 172.146 58.643C171.662 58.643 171.248 58.5733 170.903 58.434C170.566 58.2873 170.309 58.0673 170.133 57.774C169.957 57.4733 169.869 57.0957 169.869 56.641ZM174.269 56.212H173.389V53.44C173.426 53.4253 173.481 53.4107 173.554 53.396C173.635 53.374 173.715 53.363 173.796 53.363C173.957 53.363 174.075 53.396 174.148 53.462C174.229 53.5207 174.269 53.6233 174.269 53.77V56.212ZM170.749 56.212H169.869V53.44C169.906 53.4253 169.961 53.4107 170.034 53.396C170.115 53.374 170.199 53.363 170.287 53.363C170.441 53.363 170.555 53.396 170.628 53.462C170.709 53.5207 170.749 53.6233 170.749 53.77V56.212ZM176.797 54.364V56.102H175.917V54.43C175.917 54.2613 175.946 54.1293 176.005 54.034C176.071 53.9313 176.177 53.8323 176.324 53.737C176.514 53.6123 176.775 53.506 177.105 53.418C177.435 53.3227 177.801 53.275 178.205 53.275C178.791 53.275 179.085 53.4217 179.085 53.715C179.085 53.7883 179.074 53.858 179.052 53.924C179.03 53.9827 179 54.034 178.964 54.078C178.89 54.0633 178.795 54.0487 178.678 54.034C178.56 54.0193 178.443 54.012 178.326 54.012C177.988 54.012 177.691 54.0487 177.435 54.122C177.178 54.188 176.965 54.2687 176.797 54.364ZM175.917 55.596L176.797 55.728V58.478C176.76 58.4927 176.705 58.5073 176.632 58.522C176.558 58.544 176.478 58.555 176.39 58.555C176.236 58.555 176.118 58.5257 176.038 58.467C175.957 58.401 175.917 58.2983 175.917 58.159V55.596ZM184.673 54.012C184.174 54.012 183.76 54.1807 183.43 54.518C183.1 54.8553 182.935 55.3393 182.935 55.97C182.935 56.5933 183.093 57.0737 183.408 57.411C183.731 57.7483 184.152 57.917 184.673 57.917C184.981 57.917 185.238 57.8767 185.443 57.796C185.648 57.708 185.832 57.609 185.993 57.499C186.074 57.543 186.14 57.598 186.191 57.664C186.242 57.73 186.268 57.8107 186.268 57.906C186.268 58.1113 186.114 58.2873 185.806 58.434C185.505 58.5733 185.128 58.643 184.673 58.643C184.167 58.643 183.712 58.5477 183.309 58.357C182.913 58.159 182.601 57.862 182.374 57.466C182.147 57.07 182.033 56.5713 182.033 55.97C182.033 55.376 182.15 54.881 182.385 54.485C182.62 54.0817 182.935 53.781 183.331 53.583C183.734 53.3777 184.174 53.275 184.651 53.275C185.106 53.275 185.48 53.352 185.773 53.506C186.074 53.66 186.224 53.836 186.224 54.034C186.224 54.122 186.198 54.199 186.147 54.265C186.096 54.331 186.03 54.3823 185.949 54.419C185.788 54.309 185.608 54.2137 185.41 54.133C185.219 54.0523 184.974 54.012 184.673 54.012ZM187.572 56.641V55.64H188.452V56.597C188.452 57.0663 188.577 57.4037 188.826 57.609C189.075 57.8143 189.42 57.917 189.86 57.917C190.153 57.917 190.403 57.8877 190.608 57.829C190.813 57.763 190.975 57.697 191.092 57.631V55.64H191.972V57.598C191.972 57.752 191.95 57.8767 191.906 57.972C191.869 58.06 191.774 58.148 191.62 58.236C191.459 58.3313 191.228 58.423 190.927 58.511C190.626 58.599 190.267 58.643 189.849 58.643C189.365 58.643 188.951 58.5733 188.606 58.434C188.269 58.2873 188.012 58.0673 187.836 57.774C187.66 57.4733 187.572 57.0957 187.572 56.641ZM191.972 56.212H191.092V53.44C191.129 53.4253 191.184 53.4107 191.257 53.396C191.338 53.374 191.418 53.363 191.499 53.363C191.66 53.363 191.778 53.396 191.851 53.462C191.932 53.5207 191.972 53.6233 191.972 53.77V56.212ZM188.452 56.212H187.572V53.44C187.609 53.4253 187.664 53.4107 187.737 53.396C187.818 53.374 187.902 53.363 187.99 53.363C188.144 53.363 188.258 53.396 188.331 53.462C188.412 53.5207 188.452 53.6233 188.452 53.77V56.212ZM197.206 57.147C197.206 57.6163 197.034 57.983 196.689 58.247C196.344 58.511 195.846 58.643 195.193 58.643C194.636 58.643 194.181 58.5587 193.829 58.39C193.477 58.214 193.301 58.0233 193.301 57.818C193.301 57.73 193.323 57.6457 193.367 57.565C193.418 57.477 193.492 57.4073 193.587 57.356C193.785 57.4953 194.016 57.6237 194.28 57.741C194.544 57.8583 194.845 57.917 195.182 57.917C195.945 57.917 196.326 57.6603 196.326 57.147C196.326 56.9343 196.26 56.762 196.128 56.63C196.003 56.4907 195.816 56.3917 195.567 56.333L194.654 56.091C194.207 55.981 193.88 55.8123 193.675 55.585C193.47 55.3503 193.367 55.0607 193.367 54.716C193.367 54.3273 193.525 53.99 193.84 53.704C194.155 53.418 194.636 53.275 195.281 53.275C195.626 53.275 195.926 53.3117 196.183 53.385C196.44 53.451 196.638 53.5427 196.777 53.66C196.924 53.77 196.997 53.891 196.997 54.023C196.997 54.1183 196.971 54.2027 196.92 54.276C196.876 54.3493 196.814 54.4043 196.733 54.441C196.645 54.3823 196.531 54.32 196.392 54.254C196.26 54.1807 196.102 54.122 195.919 54.078C195.736 54.0267 195.534 54.001 195.314 54.001C194.991 54.001 194.731 54.0633 194.533 54.188C194.335 54.3127 194.236 54.4887 194.236 54.716C194.236 54.8773 194.291 55.0203 194.401 55.145C194.518 55.2623 194.702 55.3503 194.951 55.409L195.71 55.596C196.209 55.7133 196.583 55.9003 196.832 56.157C197.081 56.4063 197.206 56.7363 197.206 57.147ZM198.551 55.596H199.431V57.114C199.431 57.4073 199.515 57.6163 199.684 57.741C199.853 57.8583 200.084 57.917 200.377 57.917C200.502 57.917 200.641 57.895 200.795 57.851C200.949 57.807 201.077 57.7557 201.18 57.697C201.224 57.741 201.264 57.796 201.301 57.862C201.338 57.928 201.356 58.005 201.356 58.093C201.356 58.2543 201.261 58.3863 201.07 58.489C200.879 58.5917 200.615 58.643 200.278 58.643C199.765 58.643 199.347 58.5293 199.024 58.302C198.709 58.0747 198.551 57.697 198.551 57.169V55.596ZM199.002 54.254V53.528H201.235C201.257 53.5573 201.279 53.605 201.301 53.671C201.323 53.737 201.334 53.8067 201.334 53.88C201.334 53.9973 201.305 54.089 201.246 54.155C201.187 54.221 201.107 54.254 201.004 54.254H199.002ZM199.431 55.926H198.551V51.944C198.588 51.9293 198.643 51.9147 198.716 51.9C198.797 51.878 198.881 51.867 198.969 51.867C199.123 51.867 199.237 51.9 199.31 51.966C199.391 52.0247 199.431 52.1237 199.431 52.263V55.926ZM207.19 55.959C207.19 56.5017 207.088 56.9747 206.882 57.378C206.677 57.7813 206.387 58.093 206.013 58.313C205.639 58.533 205.199 58.643 204.693 58.643C204.187 58.643 203.744 58.533 203.362 58.313C202.988 58.093 202.699 57.7813 202.493 57.378C202.288 56.9747 202.185 56.5017 202.185 55.959C202.185 55.409 202.288 54.936 202.493 54.54C202.706 54.1367 202.999 53.825 203.373 53.605C203.755 53.385 204.195 53.275 204.693 53.275C205.192 53.275 205.628 53.385 206.002 53.605C206.376 53.825 206.666 54.1367 206.871 54.54C207.084 54.936 207.19 55.409 207.19 55.959ZM204.693 54.001C204.202 54.001 203.81 54.177 203.516 54.529C203.23 54.8737 203.087 55.3503 203.087 55.959C203.087 56.575 203.227 57.0553 203.505 57.4C203.791 57.7447 204.187 57.917 204.693 57.917C205.192 57.917 205.581 57.7447 205.859 57.4C206.145 57.048 206.288 56.5677 206.288 55.959C206.288 55.3503 206.145 54.8737 205.859 54.529C205.581 54.177 205.192 54.001 204.693 54.001ZM212.655 54.98V56.245H211.775V55.046C211.775 54.6867 211.668 54.4227 211.456 54.254C211.25 54.0853 210.975 54.001 210.631 54.001C210.403 54.001 210.183 54.0377 209.971 54.111C209.758 54.1843 209.578 54.2687 209.432 54.364V56.245H208.552V54.408C208.552 54.2613 208.581 54.1367 208.64 54.034C208.706 53.9313 208.816 53.8323 208.97 53.737C209.168 53.6123 209.417 53.506 209.718 53.418C210.026 53.3227 210.334 53.275 210.642 53.275C211.016 53.275 211.346 53.3337 211.632 53.451C211.918 53.561 212.13 53.715 212.27 53.913C212.314 53.957 212.35 53.9973 212.38 54.034C212.409 54.0707 212.438 54.1183 212.468 54.177C212.519 54.265 212.563 54.3787 212.6 54.518C212.636 54.6573 212.655 54.8113 212.655 54.98ZM215.878 55.002V56.245H214.998V55.046C214.998 54.6867 214.895 54.4227 214.69 54.254C214.484 54.0853 214.209 54.001 213.865 54.001C213.608 54.001 213.359 54.056 213.117 54.166C212.882 54.2687 212.669 54.419 212.479 54.617L212.127 53.979C212.317 53.7883 212.567 53.6233 212.875 53.484C213.183 53.3447 213.535 53.275 213.931 53.275C214.327 53.275 214.668 53.3373 214.954 53.462C215.247 53.5867 215.474 53.7773 215.636 54.034C215.797 54.2907 215.878 54.6133 215.878 55.002ZM208.552 55.662H209.432V58.478C209.395 58.4927 209.34 58.5073 209.267 58.522C209.193 58.544 209.113 58.555 209.025 58.555C208.871 58.555 208.753 58.5257 208.673 58.467C208.592 58.401 208.552 58.2983 208.552 58.159V55.662ZM211.775 55.662H212.655V58.478C212.618 58.4927 212.559 58.5073 212.479 58.522C212.405 58.544 212.328 58.555 212.248 58.555C212.086 58.555 211.965 58.5257 211.885 58.467C211.811 58.401 211.775 58.2983 211.775 58.159V55.662ZM214.998 55.662H215.878V58.478C215.841 58.4927 215.782 58.5073 215.702 58.522C215.628 58.544 215.551 58.555 215.471 58.555C215.309 58.555 215.188 58.5257 215.108 58.467C215.034 58.401 214.998 58.2983 214.998 58.159V55.662ZM217.851 56.52L217.807 55.827L221.129 55.376C221.1 54.9727 220.96 54.6427 220.711 54.386C220.462 54.122 220.117 53.99 219.677 53.99C219.222 53.99 218.845 54.155 218.544 54.485C218.251 54.8077 218.104 55.2733 218.104 55.882V56.124C218.155 56.7107 218.346 57.158 218.676 57.466C219.013 57.7667 219.472 57.917 220.051 57.917C220.359 57.917 220.638 57.8657 220.887 57.763C221.136 57.6603 221.334 57.5503 221.481 57.433C221.562 57.4843 221.624 57.5467 221.668 57.62C221.719 57.686 221.745 57.763 221.745 57.851C221.745 57.9903 221.664 58.1223 221.503 58.247C221.349 58.3643 221.14 58.4597 220.876 58.533C220.619 58.6063 220.33 58.643 220.007 58.643C219.442 58.643 218.951 58.5403 218.533 58.335C218.122 58.1297 217.803 57.8253 217.576 57.422C217.356 57.0113 217.246 56.5127 217.246 55.926C217.246 55.508 217.305 55.1377 217.422 54.815C217.547 54.485 217.715 54.2063 217.928 53.979C218.148 53.7517 218.408 53.5793 218.709 53.462C219.01 53.3373 219.336 53.275 219.688 53.275C220.135 53.275 220.528 53.3703 220.865 53.561C221.21 53.7517 221.477 54.0193 221.668 54.364C221.866 54.7013 221.965 55.09 221.965 55.53C221.965 55.6913 221.928 55.8087 221.855 55.882C221.782 55.948 221.679 55.9883 221.547 56.003L217.851 56.52ZM224.116 54.364V56.102H223.236V54.43C223.236 54.2613 223.265 54.1293 223.324 54.034C223.39 53.9313 223.496 53.8323 223.643 53.737C223.834 53.6123 224.094 53.506 224.424 53.418C224.754 53.3227 225.121 53.275 225.524 53.275C226.111 53.275 226.404 53.4217 226.404 53.715C226.404 53.7883 226.393 53.858 226.371 53.924C226.349 53.9827 226.32 54.034 226.283 54.078C226.21 54.0633 226.114 54.0487 225.997 54.034C225.88 54.0193 225.762 54.012 225.645 54.012C225.308 54.012 225.011 54.0487 224.754 54.122C224.497 54.188 224.285 54.2687 224.116 54.364ZM223.236 55.596L224.116 55.728V58.478C224.079 58.4927 224.024 58.5073 223.951 58.522C223.878 58.544 223.797 58.555 223.709 58.555C223.555 58.555 223.438 58.5257 223.357 58.467C223.276 58.401 223.236 58.2983 223.236 58.159V55.596ZM229.561 51.812C229.561 51.658 229.616 51.5297 229.726 51.427C229.836 51.317 229.972 51.262 230.133 51.262C230.302 51.262 230.438 51.317 230.54 51.427C230.643 51.5297 230.694 51.658 230.694 51.812C230.694 51.966 230.643 52.098 230.54 52.208C230.438 52.3107 230.302 52.362 230.133 52.362C229.972 52.362 229.836 52.3107 229.726 52.208C229.616 52.098 229.561 51.966 229.561 51.812ZM229.693 55.596H230.573V58.478C230.537 58.4927 230.482 58.5073 230.408 58.522C230.335 58.544 230.254 58.555 230.166 58.555C230.012 58.555 229.895 58.5257 229.814 58.467C229.734 58.401 229.693 58.2983 229.693 58.159V55.596ZM230.573 56.025H229.693V53.44C229.73 53.4253 229.785 53.4107 229.858 53.396C229.939 53.374 230.023 53.363 230.111 53.363C230.265 53.363 230.379 53.396 230.452 53.462C230.533 53.5207 230.573 53.6233 230.573 53.77V56.025ZM235.878 57.147C235.878 57.6163 235.705 57.983 235.361 58.247C235.016 58.511 234.517 58.643 233.865 58.643C233.307 58.643 232.853 58.5587 232.501 58.39C232.149 58.214 231.973 58.0233 231.973 57.818C231.973 57.73 231.995 57.6457 232.039 57.565C232.09 57.477 232.163 57.4073 232.259 57.356C232.457 57.4953 232.688 57.6237 232.952 57.741C233.216 57.8583 233.516 57.917 233.854 57.917C234.616 57.917 234.998 57.6603 234.998 57.147C234.998 56.9343 234.932 56.762 234.8 56.63C234.675 56.4907 234.488 56.3917 234.239 56.333L233.326 56.091C232.878 55.981 232.552 55.8123 232.347 55.585C232.141 55.3503 232.039 55.0607 232.039 54.716C232.039 54.3273 232.196 53.99 232.512 53.704C232.827 53.418 233.307 53.275 233.953 53.275C234.297 53.275 234.598 53.3117 234.855 53.385C235.111 53.451 235.309 53.5427 235.449 53.66C235.595 53.77 235.669 53.891 235.669 54.023C235.669 54.1183 235.643 54.2027 235.592 54.276C235.548 54.3493 235.485 54.4043 235.405 54.441C235.317 54.3823 235.203 54.32 235.064 54.254C234.932 54.1807 234.774 54.122 234.591 54.078C234.407 54.0267 234.206 54.001 233.986 54.001C233.663 54.001 233.403 54.0633 233.205 54.188C233.007 54.3127 232.908 54.4887 232.908 54.716C232.908 54.8773 232.963 55.0203 233.073 55.145C233.19 55.2623 233.373 55.3503 233.623 55.409L234.382 55.596C234.88 55.7133 235.254 55.9003 235.504 56.157C235.753 56.4063 235.878 56.7363 235.878 57.147ZM243.517 54.98V56.245H242.637V55.046C242.637 54.6867 242.531 54.4227 242.318 54.254C242.113 54.0853 241.838 54.001 241.493 54.001C241.266 54.001 241.046 54.0377 240.833 54.111C240.62 54.1843 240.441 54.2687 240.294 54.364V56.245H239.414V54.408C239.414 54.2613 239.443 54.1367 239.502 54.034C239.568 53.9313 239.678 53.8323 239.832 53.737C240.03 53.6123 240.279 53.506 240.58 53.418C240.888 53.3227 241.196 53.275 241.504 53.275C241.878 53.275 242.208 53.3337 242.494 53.451C242.78 53.561 242.993 53.715 243.132 53.913C243.176 53.957 243.213 53.9973 243.242 54.034C243.271 54.0707 243.301 54.1183 243.33 54.177C243.381 54.265 243.425 54.3787 243.462 54.518C243.499 54.6573 243.517 54.8113 243.517 54.98ZM246.74 55.002V56.245H245.86V55.046C245.86 54.6867 245.757 54.4227 245.552 54.254C245.347 54.0853 245.072 54.001 244.727 54.001C244.47 54.001 244.221 54.056 243.979 54.166C243.744 54.2687 243.532 54.419 243.341 54.617L242.989 53.979C243.18 53.7883 243.429 53.6233 243.737 53.484C244.045 53.3447 244.397 53.275 244.793 53.275C245.189 53.275 245.53 53.3373 245.816 53.462C246.109 53.5867 246.337 53.7773 246.498 54.034C246.659 54.2907 246.74 54.6133 246.74 55.002ZM239.414 55.662H240.294V58.478C240.257 58.4927 240.202 58.5073 240.129 58.522C240.056 58.544 239.975 58.555 239.887 58.555C239.733 58.555 239.616 58.5257 239.535 58.467C239.454 58.401 239.414 58.2983 239.414 58.159V55.662ZM242.637 55.662H243.517V58.478C243.48 58.4927 243.422 58.5073 243.341 58.522C243.268 58.544 243.191 58.555 243.11 58.555C242.949 58.555 242.828 58.5257 242.747 58.467C242.674 58.401 242.637 58.2983 242.637 58.159V55.662ZM245.86 55.662H246.74V58.478C246.703 58.4927 246.645 58.5073 246.564 58.522C246.491 58.544 246.414 58.555 246.333 58.555C246.172 58.555 246.051 58.5257 245.97 58.467C245.897 58.401 245.86 58.2983 245.86 58.159V55.662ZM253.113 55.959C253.113 56.5017 253.011 56.9747 252.805 57.378C252.6 57.7813 252.31 58.093 251.936 58.313C251.562 58.533 251.122 58.643 250.616 58.643C250.11 58.643 249.667 58.533 249.285 58.313C248.911 58.093 248.622 57.7813 248.416 57.378C248.211 56.9747 248.108 56.5017 248.108 55.959C248.108 55.409 248.211 54.936 248.416 54.54C248.629 54.1367 248.922 53.825 249.296 53.605C249.678 53.385 250.118 53.275 250.616 53.275C251.115 53.275 251.551 53.385 251.925 53.605C252.299 53.825 252.589 54.1367 252.794 54.54C253.007 54.936 253.113 55.409 253.113 55.959ZM250.616 54.001C250.125 54.001 249.733 54.177 249.439 54.529C249.153 54.8737 249.01 55.3503 249.01 55.959C249.01 56.575 249.15 57.0553 249.428 57.4C249.714 57.7447 250.11 57.917 250.616 57.917C251.115 57.917 251.504 57.7447 251.782 57.4C252.068 57.048 252.211 56.5677 252.211 55.959C252.211 55.3503 252.068 54.8737 251.782 54.529C251.504 54.177 251.115 54.001 250.616 54.001ZM255.354 54.364V56.102H254.474V54.43C254.474 54.2613 254.504 54.1293 254.562 54.034C254.628 53.9313 254.735 53.8323 254.881 53.737C255.072 53.6123 255.332 53.506 255.662 53.418C255.992 53.3227 256.359 53.275 256.762 53.275C257.349 53.275 257.642 53.4217 257.642 53.715C257.642 53.7883 257.631 53.858 257.609 53.924C257.587 53.9827 257.558 54.034 257.521 54.078C257.448 54.0633 257.353 54.0487 257.235 54.034C257.118 54.0193 257.001 54.012 256.883 54.012C256.546 54.012 256.249 54.0487 255.992 54.122C255.736 54.188 255.523 54.2687 255.354 54.364ZM254.474 55.596L255.354 55.728V58.478C255.318 58.4927 255.263 58.5073 255.189 58.522C255.116 58.544 255.035 58.555 254.947 58.555C254.793 58.555 254.676 58.5257 254.595 58.467C254.515 58.401 254.474 58.2983 254.474 58.159V55.596ZM258.886 56.52L258.842 55.827L262.164 55.376C262.135 54.9727 261.996 54.6427 261.746 54.386C261.497 54.122 261.152 53.99 260.712 53.99C260.258 53.99 259.88 54.155 259.579 54.485C259.286 54.8077 259.139 55.2733 259.139 55.882V56.124C259.191 56.7107 259.381 57.158 259.711 57.466C260.049 57.7667 260.507 57.917 261.086 57.917C261.394 57.917 261.673 57.8657 261.922 57.763C262.172 57.6603 262.37 57.5503 262.516 57.433C262.597 57.4843 262.659 57.5467 262.703 57.62C262.755 57.686 262.78 57.763 262.78 57.851C262.78 57.9903 262.7 58.1223 262.538 58.247C262.384 58.3643 262.175 58.4597 261.911 58.533C261.655 58.6063 261.365 58.643 261.042 58.643C260.478 58.643 259.986 58.5403 259.568 58.335C259.158 58.1297 258.839 57.8253 258.611 57.422C258.391 57.0113 258.281 56.5127 258.281 55.926C258.281 55.508 258.34 55.1377 258.457 54.815C258.582 54.485 258.751 54.2063 258.963 53.979C259.183 53.7517 259.444 53.5793 259.744 53.462C260.045 53.3373 260.371 53.275 260.723 53.275C261.171 53.275 261.563 53.3703 261.9 53.561C262.245 53.7517 262.513 54.0193 262.703 54.364C262.901 54.7013 263 55.09 263 55.53C263 55.6913 262.964 55.8087 262.89 55.882C262.817 55.948 262.714 55.9883 262.582 56.003L258.886 56.52ZM270.059 57.147C270.059 57.6163 269.887 57.983 269.542 58.247C269.198 58.511 268.699 58.643 268.046 58.643C267.489 58.643 267.034 58.5587 266.682 58.39C266.33 58.214 266.154 58.0233 266.154 57.818C266.154 57.73 266.176 57.6457 266.22 57.565C266.272 57.477 266.345 57.4073 266.44 57.356C266.638 57.4953 266.869 57.6237 267.133 57.741C267.397 57.8583 267.698 57.917 268.035 57.917C268.798 57.917 269.179 57.6603 269.179 57.147C269.179 56.9343 269.113 56.762 268.981 56.63C268.857 56.4907 268.67 56.3917 268.42 56.333L267.507 56.091C267.06 55.981 266.734 55.8123 266.528 55.585C266.323 55.3503 266.22 55.0607 266.22 54.716C266.22 54.3273 266.378 53.99 266.693 53.704C267.009 53.418 267.489 53.275 268.134 53.275C268.479 53.275 268.78 53.3117 269.036 53.385C269.293 53.451 269.491 53.5427 269.63 53.66C269.777 53.77 269.85 53.891 269.85 54.023C269.85 54.1183 269.825 54.2027 269.773 54.276C269.729 54.3493 269.667 54.4043 269.586 54.441C269.498 54.3823 269.385 54.32 269.245 54.254C269.113 54.1807 268.956 54.122 268.772 54.078C268.589 54.0267 268.387 54.001 268.167 54.001C267.845 54.001 267.584 54.0633 267.386 54.188C267.188 54.3127 267.089 54.4887 267.089 54.716C267.089 54.8773 267.144 55.0203 267.254 55.145C267.372 55.2623 267.555 55.3503 267.804 55.409L268.563 55.596C269.062 55.7133 269.436 55.9003 269.685 56.157C269.935 56.4063 270.059 56.7363 270.059 57.147ZM273.327 58.654C272.637 58.654 272.102 58.5183 271.721 58.247C271.347 57.9757 271.16 57.5833 271.16 57.07C271.16 56.5933 271.317 56.2303 271.633 55.981C271.955 55.7243 272.399 55.5703 272.964 55.519L274.526 55.365V55.057C274.526 54.6903 274.416 54.4227 274.196 54.254C273.976 54.0853 273.679 54.001 273.305 54.001C273.004 54.001 272.714 54.045 272.436 54.133C272.164 54.221 271.922 54.32 271.71 54.43C271.651 54.3787 271.596 54.32 271.545 54.254C271.501 54.1807 271.479 54.1073 271.479 54.034C271.479 53.8433 271.585 53.6967 271.798 53.594C271.996 53.4913 272.223 53.4143 272.48 53.363C272.744 53.3043 273.022 53.275 273.316 53.275C273.954 53.275 274.46 53.418 274.834 53.704C275.208 53.99 275.395 54.441 275.395 55.057V57.664C275.395 57.8253 275.362 57.95 275.296 58.038C275.237 58.1187 275.145 58.1957 275.021 58.269C274.845 58.3643 274.61 58.4523 274.317 58.533C274.023 58.6137 273.693 58.654 273.327 58.654ZM273.327 57.928C273.635 57.928 273.888 57.8987 274.086 57.84C274.291 57.774 274.438 57.7117 274.526 57.653V56.058L273.162 56.201C272.78 56.2303 272.498 56.3147 272.315 56.454C272.131 56.5933 272.04 56.795 272.04 57.059C272.04 57.3303 272.146 57.543 272.359 57.697C272.579 57.851 272.901 57.928 273.327 57.928ZM277.738 54.419V53.704H280.07C280.092 53.7333 280.114 53.781 280.136 53.847C280.158 53.9057 280.169 53.9753 280.169 54.056C280.169 54.1733 280.139 54.265 280.081 54.331C280.022 54.3897 279.938 54.419 279.828 54.419H277.738ZM277.892 53.011V54.298H277.023V52.967C277.023 52.5343 277.1 52.186 277.254 51.922C277.415 51.6507 277.642 51.4527 277.936 51.328C278.236 51.196 278.592 51.13 279.003 51.13C279.421 51.13 279.747 51.185 279.982 51.295C280.224 51.405 280.345 51.5407 280.345 51.702C280.345 51.7827 280.326 51.856 280.29 51.922C280.26 51.988 280.216 52.0503 280.158 52.109C280.026 52.0357 279.861 51.977 279.663 51.933C279.465 51.8817 279.274 51.856 279.091 51.856C278.643 51.856 278.332 51.9477 278.156 52.131C277.98 52.3143 277.892 52.6077 277.892 53.011ZM277.023 53.814H277.903V58.478C277.866 58.4927 277.811 58.5073 277.738 58.522C277.664 58.544 277.584 58.555 277.496 58.555C277.342 58.555 277.224 58.5257 277.144 58.467C277.063 58.401 277.023 58.2983 277.023 58.159V53.814ZM281.38 56.52L281.336 55.827L284.658 55.376C284.629 54.9727 284.49 54.6427 284.24 54.386C283.991 54.122 283.646 53.99 283.206 53.99C282.752 53.99 282.374 54.155 282.073 54.485C281.78 54.8077 281.633 55.2733 281.633 55.882V56.124C281.685 56.7107 281.875 57.158 282.205 57.466C282.543 57.7667 283.001 57.917 283.58 57.917C283.888 57.917 284.167 57.8657 284.416 57.763C284.666 57.6603 284.864 57.5503 285.01 57.433C285.091 57.4843 285.153 57.5467 285.197 57.62C285.249 57.686 285.274 57.763 285.274 57.851C285.274 57.9903 285.194 58.1223 285.032 58.247C284.878 58.3643 284.669 58.4597 284.405 58.533C284.149 58.6063 283.859 58.643 283.536 58.643C282.972 58.643 282.48 58.5403 282.062 58.335C281.652 58.1297 281.333 57.8253 281.105 57.422C280.885 57.0113 280.775 56.5127 280.775 55.926C280.775 55.508 280.834 55.1377 280.951 54.815C281.076 54.485 281.245 54.2063 281.457 53.979C281.677 53.7517 281.938 53.5793 282.238 53.462C282.539 53.3373 282.865 53.275 283.217 53.275C283.665 53.275 284.057 53.3703 284.394 53.561C284.739 53.7517 285.007 54.0193 285.197 54.364C285.395 54.7013 285.494 55.09 285.494 55.53C285.494 55.6913 285.458 55.8087 285.384 55.882C285.311 55.948 285.208 55.9883 285.076 56.003L281.38 56.52ZM286.776 55.596H287.656V57.114C287.656 57.4073 287.741 57.6163 287.909 57.741C288.078 57.8583 288.309 57.917 288.602 57.917C288.727 57.917 288.866 57.895 289.02 57.851C289.174 57.807 289.303 57.7557 289.405 57.697C289.449 57.741 289.49 57.796 289.526 57.862C289.563 57.928 289.581 58.005 289.581 58.093C289.581 58.2543 289.486 58.3863 289.295 58.489C289.105 58.5917 288.841 58.643 288.503 58.643C287.99 58.643 287.572 58.5293 287.249 58.302C286.934 58.0747 286.776 57.697 286.776 57.169V55.596ZM287.227 54.254V53.528H289.46C289.482 53.5573 289.504 53.605 289.526 53.671C289.548 53.737 289.559 53.8067 289.559 53.88C289.559 53.9973 289.53 54.089 289.471 54.155C289.413 54.221 289.332 54.254 289.229 54.254H287.227ZM287.656 55.926H286.776V51.944C286.813 51.9293 286.868 51.9147 286.941 51.9C287.022 51.878 287.106 51.867 287.194 51.867C287.348 51.867 287.462 51.9 287.535 51.966C287.616 52.0247 287.656 52.1237 287.656 52.263V55.926ZM291.935 57.367C291.811 57.1323 291.66 56.817 291.484 56.421C291.308 56.0177 291.125 55.5703 290.934 55.079C290.751 54.5803 290.575 54.0743 290.406 53.561C290.458 53.4877 290.524 53.429 290.604 53.385C290.692 53.341 290.784 53.319 290.879 53.319C291.004 53.319 291.107 53.352 291.187 53.418C291.268 53.484 291.334 53.594 291.385 53.748C291.605 54.364 291.836 54.9763 292.078 55.585C292.32 56.1937 292.588 56.8243 292.881 57.477H292.925C293.079 57.169 293.241 56.784 293.409 56.322C293.578 55.86 293.739 55.3723 293.893 54.859C294.047 54.3457 294.176 53.8617 294.278 53.407C294.33 53.385 294.385 53.3667 294.443 53.352C294.509 53.33 294.579 53.319 294.652 53.319C294.777 53.319 294.88 53.352 294.96 53.418C295.041 53.4767 295.081 53.5683 295.081 53.693C295.081 53.8103 295.048 54.0083 294.982 54.287C294.916 54.5583 294.825 54.8773 294.707 55.244C294.597 55.6033 294.465 55.9883 294.311 56.399C294.165 56.8023 294.003 57.202 293.827 57.598C293.659 57.9867 293.486 58.3387 293.31 58.654C292.973 59.2773 292.665 59.754 292.386 60.084C292.108 60.4213 291.851 60.59 291.616 60.59C291.448 60.59 291.316 60.546 291.22 60.458C291.132 60.37 291.077 60.2673 291.055 60.15C291.217 60.0107 291.396 59.8237 291.594 59.589C291.8 59.3617 291.994 59.1123 292.177 58.841C292.368 58.577 292.522 58.324 292.639 58.082C292.515 58.0453 292.397 57.9793 292.287 57.884C292.185 57.7887 292.067 57.6163 291.935 57.367Z" fill="#94A3B8"/>
<path d="M332 46.5H316" stroke="black" stroke-width="1.5" stroke-linecap="round" stroke-linejoin="round"/>
<path d="M327 51.5C327 51.5 332 47.8176 332 46.5C332 45.1824 327 41.5 327 41.5" stroke="black" stroke-width="1.5" stroke-linecap="round" stroke-linejoin="round"/>
</g>
<defs>
<filter id="filter0_d_2410_2857" x="-2" y="0" width="364" height="97" filterUnits="userSpaceOnUse" color-interpolation-filters="sRGB">
<feFlood flood-opacity="0" result="BackgroundImageFix"/>
<feColorMatrix in="SourceAlpha" type="matrix" values="0 0 0 0 0 0 0 0 0 0 0 0 0 0 0 0 0 0 127 0" result="hardAlpha"/>
<feOffset dy="2"/>
<feGaussianBlur stdDeviation="10"/>
<feComposite in2="hardAlpha" operator="out"/>
<feColorMatrix type="matrix" values="0 0 0 0 0 0 0 0 0 0 0 0 0 0 0 0 0 0 0.1 0"/>
<feBlend mode="normal" in2="BackgroundImageFix" result="effect1_dropShadow_2410_2857"/>
<feBlend mode="normal" in="SourceGraphic" in2="effect1_dropShadow_2410_2857" result="shape"/>
</filter>
</defs>
</svg>
